<svg width="22" height="24" viewBox="0 0 22 24" fill="none" xmlns="http://www.w3.org/2000/svg">
<path d="M0.0429688 13.0037C0.0429688 18.7487 4.8063 23.5034 10.5375 23.5034C16.2774 23.5034 21.043 18.7487 21.043 13.0037C21.043 9.53976 19.2906 6.42441 16.6423 4.50614C16.1923 4.16303 15.6222 4.27019 15.371 4.69194C15.1111 5.11815 15.2488 5.61208 15.6616 5.9202C17.8598 7.4976 19.278 10.0709 19.2889 13.0037C19.2999 17.8635 15.3949 21.7594 10.5375 21.7594C5.69104 21.7594 1.80574 17.8635 1.80574 13.0037C1.80574 8.83141 4.66679 5.36903 8.55919 4.47996V5.95633C8.55919 6.68662 9.05531 6.88356 9.61935 6.48546L12.9071 4.18381C13.3772 3.85787 13.3881 3.35929 12.9071 3.02466L9.63027 0.720789C9.05531 0.30083 8.55919 0.497772 8.55919 1.23899V2.69226C3.73843 3.63814 0.0429688 7.93534 0.0429688 13.0037Z" fill="black"/>
</svg>
